<svg 
 xmlns="http://www.w3.org/2000/svg"
 xmlns:xlink="http://www.w3.org/1999/xlink"
 width="27px" height="27px">
<path fill-rule="evenodd"  stroke="red" stroke-width="2px" stroke-linecap="butt" stroke-linejoin="miter" fill="none"
 d="M17.006,12.028 L17.006,21.357 C17.006,21.357 15.315,21.428 14.645,22.059 C13.975,22.690 12.571,23.006 10.943,23.006 C9.315,23.006 7.592,23.006 7.592,23.006 C7.592,23.006 4.783,23.111 4.783,21.603 C4.783,21.603 4.672,20.621 5.390,20.481 C5.390,20.481 3.954,20.182 3.954,18.517 C3.954,18.517 3.874,17.499 4.624,17.184 C4.624,17.184 3.443,17.044 3.443,15.465 C3.443,15.465 3.459,14.256 4.145,13.922 C4.145,13.922 2.996,13.782 2.996,12.204 C2.996,10.626 3.762,10.661 4.273,10.626 C4.783,10.591 8.600,9.936 8.600,9.936 C8.600,9.936 8.167,7.049 8.294,5.435 C8.421,3.822 8.645,2.998 9.443,3.015 C10.241,3.033 10.326,3.916 10.464,4.488 C10.603,5.061 11.358,8.048 12.666,9.609 C13.975,11.169 15.570,11.853 17.006,12.028 Z"/>
<path fill-rule="evenodd"  stroke="red" stroke-width="2px" stroke-linecap="butt" stroke-linejoin="miter" fill="none"
 d="M18.999,9.000 L23.000,9.000 C24.104,9.000 24.999,9.895 24.999,11.000 L24.999,23.000 C24.999,24.104 24.104,25.000 23.000,25.000 L18.999,25.000 C17.895,25.000 16.999,24.104 16.999,23.000 L16.999,11.000 C16.999,9.895 17.895,9.000 18.999,9.000 Z"/>
</svg>